<?xml version="1.0" encoding="UTF-8" standalone="no"?>
<svg width="57px" height="17px" viewBox="0 0 57 17" version="1.1" xmlns="http://www.w3.org/2000/svg" xmlns:xlink="http://www.w3.org/1999/xlink" xmlns:sketch="http://www.bohemiancoding.com/sketch/ns">
    <!-- Generator: Sketch 3.2.2 (9983) - http://www.bohemiancoding.com/sketch -->
    <title>bbs_blanco</title>
    <desc>Created with Sketch.</desc>
    <defs></defs>
    <g id="Page-1" stroke="none" stroke-width="1" fill="none" fill-rule="evenodd" sketch:type="MSPage">
        <g id="Artboard-21" sketch:type="MSArtboardGroup" transform="translate(-408.000000, -491.000000)">
            <g id="bbs_blanco" sketch:type="MSLayerGroup" transform="translate(408.000000, 491.739788)">
                <path d="M16.0968057,4.14106687 L4.04780814,16.3023756 L0.0316899884,12.2492552 L12.0806875,0.0872972876 L16.0968057,4.14106687" id="Fill-1" fill="#FFFDFD" sketch:type="MSShapeGroup"></path>
                <path d="M12.0806875,0.0872972876 L24.1283988,12.2492552 L20.1129238,16.3023756 L8.06328319,4.14106687 L12.0806875,0.0872972876" id="Fill-2" fill="#FFFFFF" sketch:type="MSShapeGroup"></path>
                <path d="M32.1606352,4.14106687 L20.1129238,16.3023756 L16.0968057,12.2492552 L28.1451601,0.0872972876 L32.1606352,4.14106687" id="Fill-3" fill="#FFFDFD" sketch:type="MSShapeGroup"></path>
                <path d="M28.1451601,0.0872972876 L40.1922284,12.2492552 L36.1761102,16.3023756 L24.1283988,4.14106687 L28.1451601,0.0872972876" id="Fill-4" fill="#FFFFFF" sketch:type="MSShapeGroup"></path>
                <path d="M48.2257508,4.14106687 L36.1761102,16.3023756 L32.1606352,12.2492552 L44.2083465,0.0872972876 L48.2257508,4.14106687" id="Fill-5" fill="#FFFDFD" sketch:type="MSShapeGroup"></path>
                <path d="M44.2083465,0.0872972876 L56.2573441,12.2492552 L52.2412259,16.3023756 L40.1922284,4.14106687 L44.2083465,0.0872972876" id="Fill-6" fill="#FFFFFF" sketch:type="MSShapeGroup"></path>
            </g>
        </g>
    </g>
</svg>