<?xml version="1.0" encoding="UTF-8" standalone="no"?>
<svg width="93px" height="93px" viewBox="0 0 93 93" version="1.1" xmlns="http://www.w3.org/2000/svg" xmlns:xlink="http://www.w3.org/1999/xlink" xmlns:sketch="http://www.bohemiancoding.com/sketch/ns">
    <!-- Generator: Sketch 3.2.2 (9983) - http://www.bohemiancoding.com/sketch -->
    <title>cg-white-logo-big</title>
    <desc>Created with Sketch.</desc>
    <defs></defs>
    <g id="Page-1" stroke="none" stroke-width="1" fill="none" fill-rule="evenodd" sketch:type="MSPage">
        <g id="Artboard-3" sketch:type="MSArtboardGroup" transform="translate(-1325.000000, -481.000000)">
            <g id="cg-white-logo-big" sketch:type="MSLayerGroup" transform="translate(1326.000000, 482.000000)">
                <circle id="Oval-26" stroke="#F2F1F1" stroke-width="1.5" sketch:type="MSShapeGroup" cx="45.5" cy="45.5" r="45.5"></circle>
                <path d="M46.0526958,64.2368197 C35.7732173,64.2368197 27.4425959,55.8493792 27.4425959,45.4997895 C27.4425959,35.1506208 35.7732173,26.7631803 46.0526958,26.7631803 C47.5098437,26.7631803 48.9080368,26.9711404 50.2573098,27.3079177 C50.3681115,27.334018 50.481422,27.3546456 50.5918057,27.3807459 C51.9381519,27.7440444 53.2288881,28.2445798 54.4477077,28.8714067 C54.9214376,29.11978 55.6088267,29.7242954 57.4753141,28.6941776 C59.3422196,27.6640598 66.8541622,23.27122 67.592562,22.8102559 C68.331798,22.3492919 67.836744,21.6816307 67.5064293,21.3861086 C65.0524834,19.1886362 62.2393725,17.3982435 59.2105118,16.0153514 C59.1323234,15.9395765 59.0332289,15.9101085 58.9404063,15.8692743 C58.4399168,15.6465802 57.9252111,15.4621946 57.4105055,15.2660218 C55.8985838,14.6808711 54.3486133,14.176968 52.7380153,13.8225098 C52.4235891,13.7555753 52.1008005,13.7202136 51.7813569,13.6621195 C49.9203051,13.3106082 48.0186957,13.0849673 46.0526958,13.0849673 C28.2713096,13.0849673 13.8574613,27.5975463 13.8574613,45.4997895 C13.8574613,47.5991755 14.0815736,49.6396254 14.4708433,51.6215602 C14.5318888,51.9499182 14.613004,52.2690147 14.6832482,52.5935839 C15.0114723,54.0164683 15.4475714,55.3926249 15.9626952,56.7363666 C16.4276445,57.9984398 16.9916883,59.1927365 17.6025615,60.3727203 C17.7447223,60.6358276 17.8818656,60.9023027 18.0298801,61.1633052 C23.5260665,71.10792 33.9447789,77.9150327 46.0526958,77.9150327 C56.0118943,77.9150327 65.0495566,73.207306 70.9437932,66.0554175 C70.9529918,66.0436303 58.7706496,59.1586378 58.7706496,59.1586378 C55.4440875,62.3032966 50.9756398,64.2368197 46.0526958,64.2368197 Z" id="Fill-3" fill="#F2F2F2" sketch:type="MSShapeGroup"></path>
                <path d="M41.3335507,46.5243378 C40.7780718,46.8361613 40.7821895,47.3398762 41.3421979,47.6437042 L71.4241193,63.9464764 C71.9841277,64.2503044 72.4424287,63.9888524 72.4424287,63.3656051 L72.4374874,51.9240814 C72.4374874,51.3008342 71.981657,50.5364668 71.4257664,50.2250431 L54.065918,40.5153391 C53.5100273,40.2043152 52.6000136,40.2047149 52.044123,40.5165384 L41.3335507,46.5243378" id="Fill-4" fill="#F2F2F2" sketch:type="MSShapeGroup"></path>
            </g>
        </g>
    </g>
</svg>