<?xml version="1.0" encoding="UTF-8" standalone="no"?>
<svg width="41px" height="41px" viewBox="0 0 41 41" version="1.1" xmlns="http://www.w3.org/2000/svg" xmlns:xlink="http://www.w3.org/1999/xlink" xmlns:sketch="http://www.bohemiancoding.com/sketch/ns">
    <!-- Generator: Sketch 3.2.2 (9983) - http://www.bohemiancoding.com/sketch -->
    <title>cg-white-logo</title>
    <desc>Created with Sketch.</desc>
    <defs></defs>
    <g id="Page-1" stroke="none" stroke-width="1" fill="none" fill-rule="evenodd" sketch:type="MSPage">
        <g id="cg-white-logo" sketch:type="MSLayerGroup" transform="translate(1.000000, 1.000000)">
            <circle id="Oval-26" stroke="#F2F1F1" stroke-width="1.5" sketch:type="MSShapeGroup" cx="19.5" cy="19.5" r="19.5"></circle>
            <path d="M19.7368696,27.5300656 C15.3313789,27.5300656 11.7611125,23.9354482 11.7611125,19.4999098 C11.7611125,15.0645518 15.3313789,11.4699344 19.7368696,11.4699344 C20.3613616,11.4699344 20.9605872,11.5590602 21.538847,11.7033933 C21.5863335,11.7145791 21.6348952,11.7234195 21.6822024,11.7346054 C22.2592079,11.8903048 22.8123806,12.1048199 23.3347319,12.37346 C23.537759,12.4799057 23.8323543,12.7389837 24.6322775,12.2975047 C25.4323798,11.8560256 28.6517838,9.97337998 28.9682408,9.77582397 C29.2850563,9.57826795 29.0728903,9.29212746 28.9313268,9.16547512 C27.8796357,8.22370125 26.6740168,7.45639008 25.3759336,6.86372205 C25.3424243,6.83124709 25.2999553,6.81861793 25.2601741,6.80111754 C25.0456786,6.70567724 24.8250905,6.62665483 24.6045024,6.54258077 C23.9565359,6.2918019 23.2922628,6.07584341 22.6020066,5.92393276 C22.4672525,5.89524654 22.3289145,5.88009156 22.1920101,5.85519409 C21.3944165,5.70454635 20.579441,5.60784314 19.7368696,5.60784314 C12.1162755,5.60784314 5.938912,11.8275198 5.938912,19.4999098 C5.938912,20.3996466 6.03496012,21.2741252 6.20178997,22.1235258 C6.22795233,22.2642506 6.26271602,22.4010063 6.29282065,22.5401074 C6.43348814,23.149915 6.62038775,23.7396964 6.84115507,24.3155857 C7.04041908,24.8564742 7.28215213,25.3683157 7.54395494,25.874023 C7.60488099,25.9867833 7.6636567,26.1009869 7.72709147,26.2128451 C10.0825999,30.4748229 14.5477624,33.3921569 19.7368696,33.3921569 C24.0050976,33.3921569 27.8783814,31.3745597 30.4044828,28.3094646 C30.4084251,28.304413 25.1874213,25.3537019 25.1874213,25.3537019 C23.7617518,26.7014128 21.8467028,27.5300656 19.7368696,27.5300656 Z" id="Fill-3" fill="#F2F2F2" sketch:type="MSShapeGroup"></path>
            <path d="M17.7143789,19.0818591 C17.4763165,19.2154977 17.4780812,19.4313755 17.7180848,19.5615875 L30.6103368,26.5484899 C30.8503404,26.6787019 31.0467551,26.566651 31.0467551,26.2995451 L31.0446375,21.3960349 C31.0446375,21.1289289 30.8492816,20.8013429 30.6110427,20.6678756 L23.1711077,16.5065739 C22.9328688,16.3732779 22.542863,16.3734493 22.3046241,16.5070879 L17.7143789,19.0818591" id="Fill-4" fill="#F2F2F2" sketch:type="MSShapeGroup"></path>
        </g>
    </g>
</svg>