<?xml version="1.0" encoding="UTF-8" standalone="no"?>
<svg width="213px" height="199px" viewBox="0 0 213 199" version="1.1" xmlns="http://www.w3.org/2000/svg" xmlns:xlink="http://www.w3.org/1999/xlink" xmlns:sketch="http://www.bohemiancoding.com/sketch/ns">
    <!-- Generator: Sketch 3.2.2 (9983) - http://www.bohemiancoding.com/sketch -->
    <title>pineapple</title>
    <desc>Created with Sketch.</desc>
    <defs>
        <linearGradient x1="50%" y1="5.61490978%" x2="50%" y2="88.7349508%" id="linearGradient-1">
            <stop stop-color="#01E4E6" offset="0%"></stop>
            <stop stop-color="#8AE49A" offset="46.8352506%"></stop>
            <stop stop-color="#FFE459" offset="100%"></stop>
        </linearGradient>
        <radialGradient cx="50%" cy="53.3848183%" fx="50%" fy="53.3848183%" r="75.1262713%" id="radialGradient-2">
            <stop stop-color="#FFFFFF" stop-opacity="0" offset="0%"></stop>
            <stop stop-color="#FFB892" stop-opacity="0.428238146" offset="69.2103795%"></stop>
            <stop stop-color="#FF5900" offset="100%"></stop>
        </radialGradient>
        <path id="path-3" d="M180.340651,185.471591 C200.473184,165.860963 213,138.30811 213,107.793916 C213,48.2609803 165.318326,0 106.5,0 C47.6816741,0 0,48.2609803 0,107.793916 C0,140.185569 14.1157223,169.240263 36.4606872,185.471591 L180.340651,185.471591 Z"></path>
        <path id="path-4" d="M180.340651,185.471591 C200.473184,165.860963 213,138.30811 213,107.793916 C213,48.2609803 165.318326,0 106.5,0 C47.6816741,0 0,48.2609803 0,107.793916 C0,140.185569 14.1157223,169.240263 36.4606872,185.471591 L180.340651,185.471591 Z"></path>
        <filter x="-50%" y="-50%" width="200%" height="200%" filterUnits="objectBoundingBox" id="filter-6">
            <feMorphology radius="7" in="SourceAlpha" operator="dilate" result="shadowSpreadOuter1"></feMorphology>
            <feOffset dx="0" dy="0" in="shadowSpreadOuter1" result="shadowOffsetOuter1"></feOffset>
            <feGaussianBlur stdDeviation="9" in="shadowOffsetOuter1" result="shadowBlurOuter1"></feGaussianBlur>
            <feColorMatrix values="0 0 0 0 0.978635204   0 0 0 0 0.911178881   0 0 0 0 0.574172039  0 0 0 0.390857111 0" in="shadowBlurOuter1" type="matrix" result="shadowMatrixOuter1"></feColorMatrix>
            <feMerge>
                <feMergeNode in="shadowMatrixOuter1"></feMergeNode>
                <feMergeNode in="SourceGraphic"></feMergeNode>
            </feMerge>
        </filter>
        <path d="M56.2720799,122.658066 C46.3137589,139.727116 42.0077519,162.557533 42.0077519,186.247161 C42.0077519,186.247161 47.2822676,190.165282 65.0669547,192.930831 C69.1967644,194.827308 74.8979545,196 81.1945977,196 C84.2070537,196 87.0832176,195.731585 89.7162202,195.243912 L89.7162202,195.243912 C94.793239,195.474121 100.37446,195.604641 106.503876,195.604641 C111.737462,195.604641 116.571383,195.509485 121.033026,195.338364 L121.033027,195.338365 C123.520546,195.766128 126.213734,196 129.025674,196 C134.628891,196 139.760583,195.071374 143.733045,193.530454 C164.906166,190.773904 171,186.247161 171,186.247161 C171,161.806966 166.416813,138.281292 155.772069,121.053159 L155.772069,121.053159 C154.755613,117.110885 152.608143,112.505743 148.409723,107.658533 C160.044769,91.3212265 159.415633,73.028155 159.415633,73.028155 C153.498363,73.1402864 148.104008,73.8179377 143.18475,74.9467112 C143.727632,63.0530722 140.720523,54.3047894 140.720523,54.3047894 C133.241629,56.747191 126.938645,59.8751324 121.625578,63.4644841 C115.410069,49.0681184 104.970499,40.9029505 104.970499,40.9029505 C97.5191174,49.4420315 92.5957716,57.5028351 89.5613228,65.0295169 C83.8083635,60.7823246 76.7973076,57.0959178 68.2505745,54.3047894 C68.2505745,54.3047894 65.3397561,62.7729454 65.7628069,74.3732801 L65.7628072,74.3732864 C61.6000415,73.5889518 57.1142498,73.1197757 52.2793469,73.028155 C52.2793469,73.028155 51.6296427,91.9192926 63.8609842,108.451649 C58.9888757,113.663569 56.945039,118.582409 56.2720799,122.658066 Z" id="path-7"></path>
        <radialGradient cx="50%" cy="51.3561172%" fx="50%" fy="51.3561172%" r="49.6517752%" id="radialGradient-8">
            <stop stop-color="#F6F815" offset="0%"></stop>
            <stop stop-color="#FCFDB1" stop-opacity="0.336675462" offset="29.4662787%"></stop>
            <stop stop-color="#FFFFFF" stop-opacity="0" offset="100%"></stop>
        </radialGradient>
        <linearGradient x1="50%" y1="17.7455357%" x2="50%" y2="121.463449%" id="linearGradient-9">
            <stop stop-color="#2D2D2D" offset="0.68359375%"></stop>
            <stop stop-color="#5A5555" offset="64.6504305%"></stop>
        </linearGradient>
        <ellipse id="path-10" cx="106.5" cy="184" rx="74.5" ry="15"></ellipse>
        <path id="path-11" d="M86.9705012,49.2094132 C84.6271905,79.2582199 66.4585549,89.693371 66.4585549,89.693371 C62.2338489,81.9232467 23.9999992,49.0000015 65.9704994,0.902950465 C65.9704994,0.902950465 89.3138119,19.1606065 86.9705012,49.2094132 Z"></path>
        <path id="path-12" d="M95.6714843,63.2364669 C82.715286,90.4496772 62.0137798,93.6806732 62.0137798,93.6806732 C60.8542405,84.9126381 46.6090399,37.7079791 93.3777817,10.6127712 C93.3777817,10.6127712 108.627683,36.0232565 95.6714843,63.2364669 Z"></path>
        <path id="path-13" d="M66.6714843,63.2364669 C53.715286,90.4496772 33.0137798,93.6806732 33.0137798,93.6806732 C31.8542405,84.9126381 17.6090399,37.7079791 64.3777817,10.6127712 C64.3777817,10.6127712 79.6276825,36.0232565 66.6714843,63.2364669 Z"></path>
        <linearGradient x1="28.4671379%" y1="18.8394483%" x2="55.0417129%" y2="35.0960761%" id="linearGradient-14">
            <stop stop-color="#57A289" offset="0%"></stop>
            <stop stop-color="#2E725B" offset="100%"></stop>
        </linearGradient>
        <path id="path-15" d="M104.834514,54.6359819 C119.6949,80.8579344 110.467681,99.6688388 110.467681,99.6688388 C102.620243,95.5895394 55.7817387,80.1830444 60.4120919,26.3311612 C60.4120919,26.3311612 89.9741267,28.4140294 104.834514,54.6359819 Z"></path>
        <linearGradient x1="22.4999184%" y1="30.2210303%" x2="50%" y2="45.3861929%" id="linearGradient-16">
            <stop stop-color="#57A289" offset="0%"></stop>
            <stop stop-color="#2E725B" offset="100%"></stop>
        </linearGradient>
        <path id="path-17" d="M65.1395336,54.6359819 C79.9999205,80.8579344 70.7727013,99.6688388 70.7727013,99.6688388 C62.925263,95.5895394 16.0867587,80.1830444 20.717112,26.3311612 C20.717112,26.3311612 50.2791468,28.4140294 65.1395336,54.6359819 Z"></path>
        <path id="path-18" d="M85.4390718,58.4904567 C100.299459,84.7124092 91.0722395,103.523314 91.0722395,103.523314 C83.2248012,99.4440142 33.1170582,93.5295043 41.0166502,30.185636 C41.0166502,30.185636 70.578685,32.2685042 85.4390718,58.4904567 Z"></path>
        <linearGradient x1="50%" y1="23.2246189%" x2="50%" y2="94.6741052%" id="linearGradient-19">
            <stop stop-color="#F3CE15" offset="0%"></stop>
            <stop stop-color="#FFE97B" offset="100%"></stop>
        </linearGradient>
        <path id="path-20" d="M67.503876,155.604641 C119.403101,155.604641 132,146.247161 132,146.247161 C132,98.1572777 114.255422,53.6081128 67.503876,53.6081128 C20.7523297,53.6081128 3.00775194,98.1572777 3.00775194,146.247161 C3.00775194,146.247161 15.6046512,155.604641 67.503876,155.604641 Z"></path>
        <radialGradient cx="50%" cy="69.6163971%" fx="50%" fy="69.6163971%" r="79.9569498%" id="radialGradient-21">
            <stop stop-color="#FFFFFF" stop-opacity="0" offset="0%"></stop>
            <stop stop-color="#E5C78B" stop-opacity="0.455496652" offset="61.4981219%"></stop>
            <stop stop-color="#C58300" offset="100%"></stop>
        </radialGradient>
        <path id="path-22" d="M67.503876,156 C119.805445,156 132.5,146.569977 132.5,146.569977 C132.5,98.1072817 114.617859,53.2127537 67.503876,53.2127537 C20.3898928,53.2127537 2.50775194,98.1072817 2.50775194,146.569977 C2.50775194,146.569977 15.2023074,156 67.503876,156 Z"></path>
        <path id="path-23" d="M64.9922481,103.5 C101.992248,103.5 128.992248,94.5 128.992248,94.5 C128.992248,42.8347197 111.24767,0 64.496124,0 C17.7445778,0 0,42.8347197 0,94.5 C0,94.5 27.9922485,103.5 64.9922481,103.5 Z"></path>
        <linearGradient x1="50%" y1="-38.9845729%" x2="50%" y2="160.300902%" id="linearGradient-25">
            <stop stop-color="#7D4B00" offset="0%"></stop>
            <stop stop-color="#FFDB72" offset="100%"></stop>
        </linearGradient>
        <filter x="-50%" y="-50%" width="200%" height="200%" filterUnits="objectBoundingBox" id="filter-26">
            <feOffset dx="0" dy="1" in="SourceAlpha" result="shadowOffsetOuter1"></feOffset>
            <feGaussianBlur stdDeviation="1" in="shadowOffsetOuter1" result="shadowBlurOuter1"></feGaussianBlur>
            <feColorMatrix values="0 0 0 0 0.991204294   0 0 0 0 0.964986042   0 0 0 0 0.834001577  0 0 0 0.7 0" in="shadowBlurOuter1" type="matrix" result="shadowMatrixOuter1"></feColorMatrix>
            <feMerge>
                <feMergeNode in="shadowMatrixOuter1"></feMergeNode>
                <feMergeNode in="SourceGraphic"></feMergeNode>
            </feMerge>
        </filter>
        <path id="path-27" d="M40.1574568,2.50149866 C40.1574568,2.50149866 50.9769853,35.7620662 64.0915653,43.2287234 C76.5504163,35.7620662 88.0256739,9.96815682 88.0256739,2.50149866 C69.0095328,-3.60758529 49.9933918,-0.213649761 40.1574568,2.50149866 Z"></path>
        <linearGradient x1="50%" y1="0%" x2="50%" y2="32.0083307%" id="linearGradient-28">
            <stop stop-color="#FFA913" offset="0%"></stop>
            <stop stop-color="#F8DC65" stop-opacity="0" offset="100%"></stop>
        </linearGradient>
        <path id="path-29" d="M107.81844,65.9145886 C121.856618,80.5447575 116.624895,93.4636864 116.624895,93.4636864 C110.181671,91.8623106 72.6123494,87.9105123 70.8272511,53.5811007 C70.8272511,53.5811007 93.7802621,51.2844197 107.81844,65.9145886 Z"></path>
        <path id="path-30" d="M27.4074141,65.9436588 C11.4314741,80.4955359 18.6009591,93.4927566 18.6009591,93.4927566 C25.0441833,91.8913808 61.3904336,87.9044402 63.1755318,53.5750285 C63.1755318,53.5750285 43.3833542,51.3917816 27.4074141,65.9436588 Z"></path>
    </defs>
    <g id="Page-1" stroke="none" stroke-width="1" fill="none" fill-rule="evenodd" sketch:type="MSPage">
        <g id="pineapple" sketch:type="MSLayerGroup">
            <g id="Oval-27">
                <use fill="url(#linearGradient-1)" sketch:type="MSShapeGroup" xlink:href="#path-3"></use>
                <use fill-opacity="0.0500000045" fill="none" xlink:href="#path-3"></use>
                <use fill="url(#radialGradient-2)" xlink:href="#path-3"></use>
            </g>
            <g id="Path">
                <mask id="mask-5" sketch:name="Mask" fill="white">
                    <use xlink:href="#path-4"></use>
                </mask>
                <g id="Mask">
                    <use sketch:type="MSShapeGroup" xlink:href="#path-4"></use>
                    <use xlink:href="#path-4"></use>
                    <use xlink:href="#path-4"></use>
                </g>
                <g filter="url(#filter-6)">
                    <use fill="#225645" fill-rule="evenodd" sketch:type="MSShapeGroup" mask="url(#mask-5)" xlink:href="#path-7"></use>
                    <use fill="none" xlink:href="#path-7"></use>
                </g>
                <polygon id="Star-1" fill="url(#radialGradient-8)" sketch:type="MSShapeGroup" mask="url(#mask-5)" points="105.5 158.07446 88.6834188 235.849714 93.4739547 156.421518 56.2974654 226.775596 82.3398262 151.585283 27.5606389 209.300344 72.9233819 143.924437 4.60421821 184.72002 65.9229963 134.00715 -10.8692239 154.857632 61.8578559 122.568942 -17.712093 121.927938 61.0294538 110.458131 -15.4168848 88.3731824 63.4992286 98.5729223 -4.15382447 56.6819678 69.0840086 87.7947863 15.2417584 29.2046868 77.369596 78.9230885 41.3313822 7.97920354 87.7414867 72.6158019 72.1800988 -5.42028499 99.4304452 69.3407094 105.5 -10 111.569555 69.3407094 138.819901 -5.42028499 123.258513 72.6158019 169.668618 7.97920354 133.630404 78.9230885 195.758242 29.2046868 141.915991 87.7947863 215.153824 56.6819678 147.500771 98.5729223 226.416885 88.3731824 149.970546 110.458131 228.712093 121.927938 149.142144 122.568942 221.869224 154.857632 145.077004 134.00715 206.395782 184.72002 138.076618 143.924437 183.439361 209.300344 128.660174 151.585283 154.702535 226.775596 117.526045 156.421518 122.316581 235.849714 "></polygon>
            </g>
            <g id="Oval-25">
                <use fill="url(#linearGradient-9)" sketch:type="MSShapeGroup" xlink:href="#path-10"></use>
                <use fill-opacity="0.159923041" fill="none" xlink:href="#path-10"></use>
            </g>
            <g id="pineapple-2" transform="translate(42.000000, 40.000000)"></g>
            <g transform="translate(39.000000, 40.000000)">
                <g id="Path">
                    <use fill="#225645" sketch:type="MSShapeGroup" xlink:href="#path-11"></use>
                    <use fill-opacity="0.131529851" fill="none" xlink:href="#path-11"></use>
                </g>
                <g id="Path-7">
                    <use fill="#306B58" sketch:type="MSShapeGroup" transform="translate(79.985549, 52.146722) rotate(12.000000) translate(-79.985549, -52.146722) " xlink:href="#path-12"></use>
                    <use fill-opacity="0.101154384" fill="none" xlink:href="#path-12"></use>
                </g>
                <g id="Path-7">
                    <use fill="#306B58" sketch:type="MSShapeGroup" transform="translate(50.985549, 52.146722) scale(-1, 1) rotate(12.000000) translate(-50.985549, -52.146722) " xlink:href="#path-13"></use>
                    <use fill-opacity="0.101154384" fill="none" xlink:href="#path-13"></use>
                </g>
                <g id="Path-7">
                    <use fill="url(#linearGradient-14)" sketch:type="MSShapeGroup" transform="translate(86.694980, 63.000000) rotate(-276.000000) translate(-86.694980, -63.000000) " xlink:href="#path-15"></use>
                    <use fill-opacity="0.102877796" fill="none" xlink:href="#path-15"></use>
                </g>
                <g id="Path-7">
                    <use fill="url(#linearGradient-16)" sketch:type="MSShapeGroup" transform="translate(47.000000, 63.000000) scale(-1, 1) rotate(-276.000000) translate(-47.000000, -63.000000) " xlink:href="#path-17"></use>
                    <use fill-opacity="0.100750923" fill="none" xlink:href="#path-17"></use>
                </g>
                <g id="Path-7">
                    <use fill="#7ED8BA" sketch:type="MSShapeGroup" transform="translate(67.039297, 66.854475) rotate(-326.000000) translate(-67.039297, -66.854475) " xlink:href="#path-18"></use>
                    <use fill-opacity="0.100461751" fill="none" xlink:href="#path-18"></use>
                </g>
                <g id="Oval-1">
                    <use fill="#F6D323" sketch:type="MSShapeGroup" xlink:href="#path-20"></use>
                    <use fill="url(#linearGradient-19)" xlink:href="#path-20"></use>
                    <use fill-opacity="0.0599999987" fill="none" xlink:href="#path-20"></use>
                </g>
                <g id="Oval-4">
                    <use fill="none" sketch:type="MSShapeGroup" xlink:href="#path-22"></use>
                    <use fill="url(#radialGradient-21)" fill-rule="evenodd" xlink:href="#path-22"></use>
                </g>
                <g id="Path-7-+-Path-7-+-Path-7" transform="translate(0.000000, 4.949219)"></g>
                <g id="New-Mask-Group" transform="translate(3.007752, 53.000000)">
                    <mask id="mask-24" sketch:name="Mask" fill="white">
                        <use xlink:href="#path-23"></use>
                    </mask>
                    <use id="Mask" sketch:type="MSShapeGroup" xlink:href="#path-23"></use>
                    <path d="M64.5,99.4792757 C70.7442827,99.4792757 75.8062739,97.6143315 75.8062739,95.3138063 C75.8062739,93.0132811 70.7442827,93.5286052 64.5,93.5286052 C63.9320123,93.5286052 63.3738068,93.5243414 62.8283035,93.5183209 C57.37671,93.4581543 53.1937261,93.2225397 53.1937261,95.3138063 C53.1937261,97.6143315 58.2557173,99.4792757 64.5,99.4792757 Z" id="Oval-26" fill="url(#linearGradient-25)" filter="url(#filter-26)" sketch:type="MSShapeGroup" mask="url(#mask-24)"></path>
                    <g id="Path-10">
                        <use fill="#4DA185" sketch:type="MSShapeGroup" mask="url(#mask-24)" xlink:href="#path-27"></use>
                        <use fill-opacity="0.0674230456" fill="none" xlink:href="#path-27"></use>
                    </g>
                    <g id="Oval-2-+-Oval-1-+-Rectangle-1-+-Oval-2" mask="url(#mask-24)">
                        <g transform="translate(22.674419, 48.255319)">
                            <path d="M32.9891247,37.1522314 C32.9562584,17.0548077 27.7036409,0.426761323 16.6133109,0.426761323 C5.56916826,0.426761323 0.31421526,16.9165959 0.238179394,36.9013164 C4.53359356,35.0349726 10.1664013,33.9032862 16.3337216,33.9032862 C22.7727497,33.9032862 28.6291306,35.1368844 32.9891247,37.1522314 Z" id="Oval-2" fill="#FFFAE2" sketch:type="MSShapeGroup"></path>
                            <g id="Oval-1-+-Rectangle-1" stroke-width="1" fill="none" sketch:type="MSLayerGroup" transform="translate(4.534884, 14.339535)">
                                <path d="M18.4807212,20.0218564 C18.9089629,18.2436517 19.1472868,16.2705738 19.1472868,14.1932643 C19.1472868,6.35454087 15.7537242,0 11.5675526,0 C7.38138099,0 3.98781838,6.35454087 3.98781838,14.1932643 C3.98781838,16.2959524 4.23200109,18.2918466 4.67016449,20.0869423 C6.92514748,19.746754 9.31877513,19.5637509 11.7988379,19.5637509 C14.1157597,19.5637509 16.3572439,19.7234696 18.4807212,20.0218564 Z" id="Oval-1" fill="#575757" sketch:type="MSShapeGroup"></path>
                                <path d="M3.8696159,8.91107827 L7.7352731,14.1932643 L3.8696159,19.4754503 L0.00395870249,14.1932643 L3.8696159,8.91107827 L3.8696159,8.91107827 Z" id="Rectangle-1" fill="#FDF6D5" sketch:type="MSShapeGroup"></path>
                            </g>
                        </g>
                    </g>
                    <g id="Oval-2-+-Oval-1-+-Rectangle-1-+-Oval-2" mask="url(#mask-24)">
                        <g transform="translate(70.038760, 48.255319)">
                            <path d="M32.9891247,37.1522314 C32.9562584,17.0548077 27.7036409,0.426761323 16.6133109,0.426761323 C5.56916826,0.426761323 0.31421526,16.9165959 0.238179394,36.9013164 C4.53359356,35.0349726 10.1664013,33.9032862 16.3337216,33.9032862 C22.7727497,33.9032862 28.6291306,35.1368844 32.9891247,37.1522314 Z" id="Oval-2" fill="#FFFAE2" sketch:type="MSShapeGroup"></path>
                            <g id="Oval-1-+-Rectangle-1" stroke-width="1" fill="none" sketch:type="MSLayerGroup" transform="translate(4.534884, 14.339535)">
                                <path d="M18.4807212,20.0218564 C18.9089629,18.2436517 19.1472868,16.2705738 19.1472868,14.1932643 C19.1472868,6.35454087 15.7537242,0 11.5675526,0 C7.38138099,0 3.98781838,6.35454087 3.98781838,14.1932643 C3.98781838,16.2959524 4.23200109,18.2918466 4.67016449,20.0869423 C6.92514748,19.746754 9.31877513,19.5637509 11.7988379,19.5637509 C14.1157597,19.5637509 16.3572439,19.7234696 18.4807212,20.0218564 Z" id="Oval-1" fill="#575757" sketch:type="MSShapeGroup"></path>
                                <path d="M3.8696159,8.91107827 L7.7352731,14.1932643 L3.8696159,19.4754503 L0.00395870249,14.1932643 L3.8696159,8.91107827 L3.8696159,8.91107827 Z" id="Rectangle-1" fill="#FDF6D5" sketch:type="MSShapeGroup"></path>
                            </g>
                        </g>
                    </g>
                </g>
                <ellipse id="Oval-13" fill="url(#linearGradient-28)" sketch:type="MSShapeGroup" cx="90.0256739" cy="145.5" rx="22.8270393" ry="10.5"></ellipse>
                <ellipse id="Oval-13" fill="url(#linearGradient-28)" sketch:type="MSShapeGroup" cx="42.1945977" cy="145.5" rx="22.8270393" ry="10.5"></ellipse>
                <g id="Path-7">
                    <use fill="#62BD9F" sketch:type="MSShapeGroup" xlink:href="#path-29"></use>
                    <use fill-opacity="0.0635797605" fill="none" xlink:href="#path-29"></use>
                </g>
                <g id="Path-7">
                    <use fill="#62BD9F" sketch:type="MSShapeGroup" xlink:href="#path-30"></use>
                    <use fill-opacity="0.0550676323" fill="none" xlink:href="#path-30"></use>
                </g>
            </g>
        </g>
    </g>
</svg>